PathFileType        4      (X/Y/Z)      C:\Users\pc\Desktop\IMUTRC\Sujet_01\Sujet_01_velo_100.trc         
DataRate	CameraRate	NumFrames	NumMarkers	Units	OrigDataRate	OrigDataStartFrame	OrigNumFrames
60.0	60.0	4	64	mm	60.0	125	995
Frame#	Time	pHipOrigin			pRightASI			pLeftASI			pRightCSI			pLeftCSI			pRightIschialTub			pLeftIschialTub			pSacrum			pL5SpinalProcess			pL3SpinalProcess			pT12SpinalProcess			pIJ			pT4SpinalProcess			pT8SpinalProcess			pPX			pC7SpinalProcess			pTopOfHead			pRightAuricularis			pLeftAuricularis			pBackOfHead			pRightAcromion			pLeftAcromion			pRightArmLatEpicondyle			pRightArmMedEpicondyle			pLeftArmLatEpicondyle			pLeftArmMedEpicondyle			pRightUlnarStyloid			pRightRadialStyloid			pRightOlecranon			pLeftUlnarStyloid			pLeftRadialStyloid			pLeftOlecranon			pRightTopOfHand			pRightPinky			pRightBallHand			pLeftTopOfHand			pLeftPinky			pLeftBallHand			pRightGreaterTrochanter			pRightKneeLatEpicondyle			pRightKneeMedEpicondyle			pRightPatella			pLeftGreaterTrochanter			pLeftKneeLatEpicondyle			pLeftKneeMedEpicondyle			pLeftPatella			pRightTibialTub			pRightLatMalleolus			pRightMedMalleolus			pLeftTibialTub			pLeftLatMalleolus			pLeftMedMalleolus			pRightHeelFoot			pRightFirstMetatarsal			pRightFifthMetatarsal			pRightPivotFoot			pRightHeelCenter			pRightToe			pLeftHeelFoot			pLeftFirstMetatarsal			pLeftFifthMetatarsal			pLeftPivotFoot			pLeftHeelCenter			pLeftToe			
		X1	Y1	Z1	X2	Y2	Z2	X3	Y3	Z3	X4	Y4	Z4	X5	Y5	Z5	X6	Y6	Z6	X7	Y7	Z7	X8	Y8	Z8	X9	Y9	Z9	X10	Y10	Z10	X11	Y11	Z11	X12	Y12	Z12	X13	Y13	Z13	X14	Y14	Z14	X15	Y15	Z15	X16	Y16	Z16	X17	Y17	Z17	X18	Y18	Z18	X19	Y19	Z19	X20	Y20	Z20	X21	Y21	Z21	X22	Y22	Z22	X23	Y23	Z23	X24	Y24	Z24	X25	Y25	Z25	X26	Y26	Z26	X27	Y27	Z27	X28	Y28	Z28	X29	Y29	Z29	X30	Y30	Z30	X31	Y31	Z31	X32	Y32	Z32	X33	Y33	Z33	X34	Y34	Z34	X35	Y35	Z35	X36	Y36	Z36	X37	Y37	Z37	X38	Y38	Z38	X39	Y39	Z39	X40	Y40	Z40	X41	Y41	Z41	X42	Y42	Z42	X43	Y43	Z43	X44	Y44	Z44	X45	Y45	Z45	X46	Y46	Z46	X47	Y47	Z47	X48	Y48	Z48	X49	Y49	Z49	X50	Y50	Z50	X51	Y51	Z51	X52	Y52	Z52	X53	Y53	Z53	X54	Y54	Z54	X55	Y55	Z55	X56	Y56	Z56	X57	Y57	Z57	X58	Y58	Z58	X59	Y59	Z59	X60	Y60	Z60	X61	Y61	Z61	X62	Y62	Z62	X63	Y63	Z63	X64	Y64	Z64	
125	2.067	0.0	1250.01138	7.654112177073829E-14	38.26685999999999	1332.88343	138.9691400000001	95.07479000000001	1338.57015	-103.7825799999999	8.233889999999986	1398.10296	110.71326000000009	54.97159000000001	1402.78265	-88.91417999999992	-65.45648	1201.08193	36.19358000000006	-42.058009999999996	1203.39215	-63.56089999999993	-58.22961	1274.59458	-13.032059999999928	-16.1716	1365.40434	-0.4738899999999184	35.54198	1458.87974	13.920610000000092	86.78166	1542.10721	27.900450000000106	317.27139	1576.40522	74.46044000000015	212.12637	1667.27421	58.76274000000013	148.32852	1616.27147	43.77587000000012	233.03691	1503.07027	54.31999000000012	247.07599	1694.64153	67.76671000000013	415.36726	1863.40669	76.94838000000017	373.36848	1780.47541	144.95204000000018	376.03413	1775.97343	13.209770000000155	327.99322	1800.43816	77.42228000000016	214.96972999999997	1647.19299	238.84210000000013	292.98438	1634.81254	-104.67112999999986	295.88696999999996	1429.55761	307.9712400000002	282.67719999999997	1404.97441	261.8259100000002	405.77092	1414.92616	-100.40608999999988	366.97093	1389.39518	-73.03876999999987	392.6796299999999	1268.19703	393.4497000000001	426.26679999999993	1273.88375	365.60849000000013	271.12605999999994	1418.36189	299.02651000000014	549.06433	1269.91489	-115.92608999999986	559.78616	1276.78634	-73.86807999999985	379.88451	1402.54571	-108.63997999999987	553.32937	1214.17322	447.2365600000001	474.01151999999996	1229.21933	449.3690800000001	426.20755999999994	1247.10879	404.4677200000001	706.87072	1227.67917	-38.444569999999835	653.20233	1241.42207	-97.26654999999984	586.38341	1252.91398	-100.99845999999985	-27.48580000000002	1234.6691	147.14379000000008	250.92636999999996	1074.67096	275.4503300000001	284.92819	1076.09264	217.51691000000008	281.78864999999996	1109.85751	252.88118000000009	23.81313000000002	1232.77352	-146.2552399999999	270.82988	994.22761	-186.9508099999999	288.71934	994.16837	-122.20516999999991	303.58773	1023.13509	-158.7541699999999	307.4973499999999	1044.51951	268.8750700000001	216.33217999999997	676.00843	253.47354000000007	248.43842999999998	675.11988	202.64851000000004	306.6088	951.69571	-175.5181399999999	75.34899000000003	653.49851	-219.59018999999998	93.83082000000002	637.08996	-164.79630999999998	205.37339999999998	538.9941	182.92272000000006	381.24695999999994	541.54128	244.82500000000007	334.27230999999995	526.43594	317.9230000000001	379.52908999999994	533.4851	293.8136900000001	241.92239999999998	535.61762	205.78806000000006	441.37213999999994	534.84754	333.91689000000014	-30.62533999999998	559.60845	-165.86256999999998	121.25738000000001	457.42526	-130.43905999999996	109.35082000000003	446.70343	-217.16148999999996	135.59265000000002	437.34405	-173.56332999999995	2.7841200000000206	532.24113	-167.10653999999997	196.78409000000002	396.58924	-176.93981999999994	
126	2.083	0.0	1250.01138	7.654112177073829E-14	38.85922999999998	1331.93564	139.3837900000001	93.53464000000001	1340.22877	-103.7233399999999	8.115419999999986	1397.15517	111.95723000000008	53.01678000000001	1403.96739	-87.96639999999991	-64.74564	1200.25261	36.31205000000006	-42.29494999999999	1203.6291	-63.620139999999935	-58.52579	1274.23917	-12.32121999999993	-17.00091	1365.3451	0.47389000000008147	34.47572	1458.99822	14.868390000000092	85.7154	1542.28492	28.729770000000105	316.08666	1576.52369	75.64518000000014	211.17859	1667.51116	58.999680000000126	147.3215	1616.50842	44.24976000000012	231.7337	1503.18874	55.86014000000012	246.1282	1694.87848	67.88518000000013	413.64939	1864.0583	77.06686000000018	371.88757	1781.06778	145.12975000000017	374.90864	1776.26961	13.387480000000155	326.57155	1800.6751	77.36304000000015	213.66652999999997	1648.61467	239.25675000000015	290.85186	1634.81254	-104.67112999999986	294.87994999999995	1431.33471	310.39995000000016	281.07780999999994	1406.09991	264.78774000000016	403.93459	1414.92616	-99.75448999999988	365.19383	1389.51365	-72.15021999999988	391.25794999999994	1269.67794	396.2338200000001	424.78587999999996	1275.18695	368.2741300000001	269.88208999999995	1419.96128	301.75140000000016	547.8796	1270.56649	-114.20821999999986	558.54219	1277.67489	-72.15021999999985	378.10741	1402.42723	-107.92913999999988	551.90769	1215.18024	449.6060300000001	472.5898399999999	1230.40406	451.91626000000014	424.78587999999996	1248.47123	407.1333600000001	705.68598	1229.04162	-36.252819999999836	652.07683	1242.48833	-95.25249999999984	585.25791	1253.80253	-99.16211999999986	-28.492820000000016	1229.57475	146.07753000000008	238.54590999999996	1045.52653	266.1501800000001	273.55476	1049.13997	208.86836000000008	271.65918999999997	1080.47615	246.4836200000001	25.11633000000002	1234.90604	-146.55141999999992	288.0085	1013.89417	-186.47690999999992	305.06865	1014.19036	-121.4943299999999	318.39689	1044.51951	-157.5101999999999	296.65704999999997	1017.68532	262.0036200000001	216.39140999999998	646.44935	251.99263000000005	249.62315999999998	645.50157	201.87844000000007	320.70712	970.76991	-175.39965999999993	73.86808000000003	686.13789	-224.68453999999997	91.22441000000002	668.01149	-170.00912999999997	207.20972999999998	509.84968	180.73096000000007	382.90557999999993	513.22617	243.1071300000001	335.81245999999993	497.23228	315.9681900000001	381.06924999999995	504.75533	292.0365900000001	243.69949999999997	506.53243	203.65554000000006	442.85304999999994	506.35472	332.3175000000001	-35.30502999999998	595.32814	-171.90469999999996	113.14196000000001	488.22831	-136.36271999999997	101.23540000000003	478.27656	-223.20361999999997	127.00334000000002	467.91015	-179.48698999999993	-2.7248899999999785	566.89456	-173.14866999999998	186.89157000000003	425.25977	-182.80423999999994	
127	2.1	0.0	1250.01138	7.654112177073829E-14	40.043959999999984	1330.98786	139.6207400000001	91.75754000000002	1341.65045	-104.0787599999999	8.530069999999986	1396.26662	113.14196000000008	51.06198000000001	1405.03365	-87.25555999999992	-64.0348	1199.54177	36.667470000000066	-42.76884999999999	1203.92528	-63.56089999999993	-58.76274	1274.00222	-11.432669999999929	-17.59328	1365.28587	1.3624400000000814	33.70564	1459.05745	15.638470000000092	84.88609	1542.46263	29.203660000000106	315.19811	1576.81988	76.29678000000014	210.46775	1667.80734	58.76274000000013	146.49219	1616.8046	44.24976000000012	230.72668	1503.42569	56.98564000000012	245.35812	1695.11543	67.47052000000012	412.22771	1864.82837	76.59296000000018	370.58436	1781.83785	144.71509000000017	374.13856	1776.68427	13.032060000000154	325.44605	1801.03052	76.77067000000015	212.83720999999997	1649.85864	239.19752000000014	289.07476	1634.69406	-105.08577999999987	294.05063999999993	1432.87486	312.3547500000002	279.77460999999994	1407.10693	267.15720000000016	402.15749	1414.62998	-99.22135999999988	363.5352	1389.45441	-71.26166999999987	389.7177899999999	1270.80344	398.60329000000013	423.18648999999994	1276.13474	370.5843600000001	268.81582999999995	1421.32372	303.9431500000002	546.69487	1270.86268	-112.60883999999986	557.17975	1278.20802	-70.55082999999985	376.44879	1402.19029	-107.21829999999987	550.42677	1216.06879	451.7977800000001	471.10891999999996	1231.35184	454.16725000000014	423.2457299999999	1249.47825	409.50283000000013	704.38278	1229.87093	-34.23876999999984	650.8921	1243.0807	-93.35692999999985	584.07318	1254.21718	-97.44425999999986	-29.262900000000016	1225.19123	144.9520400000001	224.50682999999998	1017.56684	254.8359900000001	260.34499	1022.66119	198.2057700000001	259.93033999999994	1051.56867	237.77584000000007	25.88641000000002	1237.15703	-146.9068399999999	303.76544	1035.2786	-186.9508099999999	320.11475	1035.87096	-121.7312799999999	331.6659	1067.56256	-157.21401999999992	283.74345999999997	991.56196	253.29583000000008	212.24484999999999	618.43043	247.43141000000006	246.30590999999998	617.54188	197.90958000000006	333.97612	991.91738	-176.0512699999999	76.82991000000003	717.23713	-229.06804999999994	93.23846000000003	697.92598	-174.51110999999995	203.18163999999996	482.66007	174.51111000000006	378.6997799999999	484.43717	237.36118000000008	331.36970999999994	467.61396	309.86682000000013	376.74496999999997	475.31473	286.17216000000013	239.61216999999996	478.86892	197.43569000000005	438.23258999999996	476.14404	326.5715500000001	-34.23876999999998	627.25668	-176.99904999999998	112.54960000000001	517.9651	-141.39783999999997	100.70227000000003	508.36877	-228.23873999999998	126.23326000000003	497.52846	-184.58133999999995	-2.0732799999999783	598.40844	-178.18378999999996	185.52913000000004	454.04878	-187.83935999999994	
128	2.117	0.0	1250.01138	7.654112177073829E-14	41.998769999999986	1330.09931	139.5022700000001	89.74350000000001	1342.71671	-104.8488399999999	9.892519999999985	1395.49655	114.03051000000009	49.16640000000001	1405.80372	-86.95936999999992	-63.264720000000004	1199.06788	37.31908000000006	-43.59815999999999	1204.22147	-63.14624999999994	-59.05892	1273.88375	-10.307169999999928	-17.83023	1365.22663	2.191760000000081	33.40946	1459.05745	16.11236000000009	84.58991	1542.5811	29.203660000000106	314.90193	1577.11606	76.11907000000014	210.2308	1668.04429	57.69648000000013	146.25524	1616.92307	43.65740000000012	230.43049	1503.66264	57.40030000000012	245.18041	1695.35237	66.22655000000013	411.3984	1865.47998	75.28976000000017	369.75505	1782.60793	143.47112000000018	374.02009	1776.98045	11.847330000000154	324.85368	1801.38594	75.23052000000015	213.07415999999998	1650.45101	238.42744000000013	288.18621	1634.16093	-106.15203999999987	293.63597999999996	1433.76341	313.4802500000002	279.12299999999993	1407.64006	268.5788800000002	400.43962	1413.68219	-98.86593999999987	361.99505	1388.92128	-70.37311999999987	388.29610999999994	1271.2181	400.3211500000001	421.82404999999994	1276.25321	372.3022200000001	268.2826999999999	1422.21227	305.12789000000015	545.51013	1270.44802	-111.18715999999986	555.87654	1277.97107	-69.12914999999984	374.90864	1401.30174	-106.62593999999987	549.06433	1216.66116	453.5748800000001	469.74647999999996	1231.7665	455.9443500000001	421.88327999999996	1249.77444	411.2206900000001	703.13881	1229.9894	-32.461669999999835	649.70737	1242.96222	-91.69829999999985	582.82921	1253.98024	-95.90410999999986	-29.61832000000002	1221.81475	143.8857800000001	208.03904999999997	990.67341	242.15935000000007	244.35109999999997	996.30089	185.88455000000008	245.89124999999999	1022.89814	226.99477000000007	26.004880000000018	1239.64497	-147.3214999999999	317.80452	1058.79554	-188.7871399999999	333.67994	1059.50638	-123.50837999999989	343.1578	1092.50118	-158.4579899999999	267.92727999999994	966.32716	241.5077400000001	203.83324999999996	591.83318	238.90133000000006	238.24972999999997	591.12234	189.61646000000005	346.17887	1015.61204	-177.94683999999992	84.29373000000002	745.90766	-233.15537999999995	100.22838000000003	726.00415	-178.65767999999994	192.81522999999999	457.42526	163.31539000000006	368.15566	454.87809	226.7578200000001	320.23322999999993	437.52176	298.73033000000004	365.78619999999995	444.8671	275.33186000000006	229.12728999999996	452.56786	186.23997000000006	427.15533999999997	443.80084	315.90895000000006	-26.77495999999998	654.26859	-181.20484999999996	120.84273000000002	545.98403	-145.72210999999993	109.05464000000003	536.38769	-232.62224999999998	134.64486000000002	525.7251	-188.90561999999994	5.5682400000000225	625.59806	-182.44881999999998	194.35539000000003	482.54159	-192.22286999999994	
